<svg width="20" height="26" viewBox="0 0 20 26" fill="none" xmlns="http://www.w3.org/2000/svg"><path d="M6.3594 3.9517C6.3594 2.01 7.9334.436 9.875.436s3.5156 1.574 3.5156 3.5157c0 1.9416-1.574 3.5156-3.5156 3.5156-1.9417 0-3.5156-1.574-3.5156-3.5156Zm12.4329.067c-.6101-.6102-1.5995-.6102-2.2096 0l-4.2299 4.2298H7.3972L3.1673 4.0187c-.6101-.6102-1.5995-.6102-2.2096 0-.6103.6102-.6103 1.5995 0 2.2097l4.6204 4.6204v13.0247c0 .863.6996 1.5625 1.5625 1.5625h.7813c.8629 0 1.5625-.6995 1.5625-1.5625v-5.4687h.7812v5.4687c0 .863.6996 1.5625 1.5625 1.5625h.7813c.8629 0 1.5625-.6995 1.5625-1.5625V10.8488l4.6204-4.6204c.6102-.6102.6102-1.5995 0-2.2097Z" fill="#FCD502"/></svg>