<svg fill="none" xmlns="http://www.w3.org/2000/svg" viewBox="0 0 98 84"><g clip-path="url(#a)"><path d="M5.516 11.789h34.708l8.672 8.745-.25 53.579-8.65-3.25H5.515V11.788Z" fill="#42A7C6"/><path d="M92.296 11.789H57.59l-8.693 8.745.27 53.579 8.651-3.25h34.48V11.788Z" fill="#fff"/><path d="M16.642 25.483h8.755a1.959 1.959 0 0 0 1.526-.503 1.992 1.992 0 0 0 .652-1.48 2.007 2.007 0 0 0-.652-1.478 1.973 1.973 0 0 0-1.526-.503h-8.755a1.97 1.97 0 0 0-1.264.647 2.001 2.001 0 0 0 0 2.67 1.97 1.97 0 0 0 1.264.647ZM37.084 33.304H16.642c-.518 0-1.015.208-1.382.578a1.98 1.98 0 0 0 0 2.788c.367.37.864.577 1.382.577h20.442c.519 0 1.016-.208 1.383-.577a1.98 1.98 0 0 0 0-2.788 1.947 1.947 0 0 0-1.383-.578ZM37.084 45.069H16.642a1.97 1.97 0 0 0-1.264.647 2.001 2.001 0 0 0 0 2.67 1.97 1.97 0 0 0 1.264.646h20.442a1.97 1.97 0 0 0 1.265-.647 2.002 2.002 0 0 0 0-2.669 1.97 1.97 0 0 0-1.265-.647ZM37.084 56.854H16.642c-.518 0-1.015.208-1.382.578a1.98 1.98 0 0 0 0 2.787c.367.37.864.578 1.382.578h20.442c.519 0 1.016-.208 1.383-.578a1.98 1.98 0 0 0 0-2.788 1.947 1.947 0 0 0-1.383-.577ZM80.859 33.304H60.438c-.519 0-1.016.208-1.383.578a1.98 1.98 0 0 0 0 2.788c.367.37.864.577 1.383.577h20.421c.519 0 1.016-.208 1.382-.577a1.98 1.98 0 0 0 0-2.788 1.947 1.947 0 0 0-1.382-.578ZM80.86 45.069H60.437a1.961 1.961 0 0 0-1.526.502 1.991 1.991 0 0 0-.652 1.48 2.007 2.007 0 0 0 .652 1.479 1.972 1.972 0 0 0 1.526.502h20.421a1.96 1.96 0 0 0 1.526-.502 1.99 1.99 0 0 0 .652-1.48 2.005 2.005 0 0 0-.652-1.478 1.972 1.972 0 0 0-1.526-.503ZM72.104 56.854H60.438c-.519 0-1.016.208-1.383.578a1.98 1.98 0 0 0 0 2.787c.367.37.864.578 1.383.578h11.666c.519 0 1.016-.208 1.382-.578a1.98 1.98 0 0 0 0-2.788 1.946 1.946 0 0 0-1.382-.577ZM60.438 25.483h8.755a1.97 1.97 0 0 0 1.264-.648 2.002 2.002 0 0 0 0-2.669 1.97 1.97 0 0 0-1.264-.647h-8.755a1.961 1.961 0 0 0-1.526.503 1.993 1.993 0 0 0-.652 1.479 2.007 2.007 0 0 0 .652 1.479 1.97 1.97 0 0 0 1.526.503Z" fill="#22344D"/><path d="M90.363 8.937H62.87a15.459 15.459 0 0 0-8.006 2.277 15.633 15.633 0 0 0-5.698 6.111 14.787 14.787 0 0 0-5.4-6.101 14.614 14.614 0 0 0-7.785-2.287H5.891a2.9 2.9 0 0 0-2.059.86 2.948 2.948 0 0 0-.853 2.076v57.878c0 .556.22 1.09.61 1.483s.919.614 1.47.614c7.632-.587 15.285-1.195 22.147-1.195a50.49 50.49 0 0 1 16.637 2.097c1.455.643 2.77 1.57 3.868 2.726a1.704 1.704 0 0 0 1.227.482 1.776 1.776 0 0 0 1.352-.608 8.586 8.586 0 0 1 3.556-2.453 48.797 48.797 0 0 1 16.948-2.286c6.863 0 14.557.608 22.148 1.195.551 0 1.08-.22 1.47-.614.39-.393.61-.927.61-1.483V13.676a4.71 4.71 0 0 0-1.344-3.354 4.604 4.604 0 0 0-3.315-1.384ZM47.003 68.64a.908.908 0 0 1-.392.748.89.89 0 0 1-.834.09 51.96 51.96 0 0 0-18.529-2.6c-6.135 0-12.914.461-19.569.986a.889.889 0 0 1-.883-.542.908.908 0 0 1-.073-.36V13.634c0-.239.094-.468.262-.637a.89.89 0 0 1 .632-.264h28.365a10.996 10.996 0 0 1 7.788 3.261 11.183 11.183 0 0 1 3.234 7.853v44.792Zm44.275-1.678a.91.91 0 0 1-.284.66.893.893 0 0 1-.673.242c-6.654-.525-13.413-.986-19.548-.986a51.896 51.896 0 0 0-18.529 2.6.888.888 0 0 1-1.123-.415.908.908 0 0 1-.104-.424V24.707c0-3.172 1.249-6.215 3.471-8.46a11.824 11.824 0 0 1 8.383-3.514h28.386v54.229h.02Z" fill="#22344D"/></g><defs><clipPath id="a"><path fill="#fff" transform="translate(3 9)" d="M0 0h92v67H0z"/></clipPath></defs></svg>
