<svg fill="none" xmlns="http://www.w3.org/2000/svg" viewBox="0 0 98 84"><path d="M5.97 12.2h34l8.5 8.5-.26 52s-.79-1.06-8.45-3.17c-7.66-2.11-33.75 0-33.75 0L5.97 12.2Z" fill="#B0DBE8"/><path d="M90.89 12.2h-34l-8.5 8.5.26 52s-.41-.58 8.45-3.17 33.75 0 33.75 0l.04-57.33Z" fill="#fff"/><path d="M16.85 25.5h8.57a1.92 1.92 0 1 0 0-3.84h-8.57a1.92 1.92 0 0 0 0 3.84ZM36.85 33.09h-20a1.92 1.92 0 0 0 0 3.84h20a1.92 1.92 0 1 0 0-3.84ZM36.85 44.52h-20a1.92 1.92 0 1 0 0 3.83h20a1.92 1.92 0 1 0 0-3.83ZM36.85 55.94h-20a1.92 1.92 0 0 0 0 3.84h20a1.92 1.92 0 1 0 0-3.84ZM79.7 33.09h-20a1.92 1.92 0 0 0 0 3.84h20a1.92 1.92 0 1 0 0-3.84ZM79.7 44.52h-20a1.92 1.92 0 1 0 0 3.83h20a1.92 1.92 0 1 0 0-3.83ZM71.18 55.94H59.71a1.92 1.92 0 0 0 0 3.84h11.47a1.92 1.92 0 1 0 0-3.84ZM59.71 25.5h8.57a1.92 1.92 0 1 0 0-3.84h-8.57a1.92 1.92 0 0 0 0 3.84Z" fill="#22344D"/><path d="M89 9.5H62.09a15.23 15.23 0 0 0-13.41 8 14.42 14.42 0 0 0-12.9-8H6.36a2.85 2.85 0 0 0-2.86 2.85v56.07a2 2 0 0 0 2.05 2c7.47-.57 15-1.16 21.67-1.16 6.31 0 11.93.54 16.22 2.08 1.43.62 2.72 1.53 3.79 2.67a1.76 1.76 0 0 0 2.53-.13 8.71 8.71 0 0 1 3.47-2.38c4.34-1.65 10.09-2.22 16.59-2.22 6.72 0 14.2.59 21.67 1.16a2 2 0 0 0 2-2V14.01A4.54 4.54 0 0 0 89 9.5ZM46.56 67.39a.87.87 0 0 1-1.21.8c-4.4-1.71-10.31-2.52-18.13-2.52-6 0-12.62.46-19.14 1a.87.87 0 0 1-.9-.91V14.01a.87.87 0 0 1 .88-.87h27.72a10.78 10.78 0 0 1 10.78 10.78v43.47Zm43.34-1.63a.87.87 0 0 1-.94.87c-6.51-.5-13.14-1-19.14-1-7.81 0-13.72.81-18.13 2.52a.87.87 0 0 1-1.2-.8V24.74a11.6 11.6 0 0 1 11.6-11.6h27.78l.03 52.62Z" fill="#22344D" stroke="#22344D" stroke-miterlimit="10"/></svg>
